<svg width="217" height="90" fill="none" xmlns="http://www.w3.org/2000/svg"><path d="M.977 66.124v-62.5h18.75v12.5h-6.25v37.5h6.25v12.5H.977Zm25-6.25v-50h50v12.5h-37.5v6.25h31.25v12.5h-31.25v18.75h-12.5Zm93.75-12.5v-6.25h-25v6.25h25Zm0-18.75v-6.25h-25v6.25h25Zm-37.5 31.25v-50h43.75l6.25 6.25v12.5l-6.25 6.25 6.25 6.25v12.5l-6.25 6.25h-43.75Zm62.5 0-6.25-6.25V9.874h12.5l12.5 12.5 12.5-12.5h12.5v50h-12.5v-31.25l-12.5 12.5-12.5-12.5v31.25h-6.25Zm50 6.25v-12.5h6.25v-37.5h-6.25v-12.5h18.75v62.5h-18.75Z" fill="#fff"/><path d="M86.651 52.74c1.163-1.073 1.963-2.16 2.4-3.259.438-1.1.536-2.604.294-4.512-.09-.956-.47-1.479-1.141-1.568-.611-.093-1.325 0-2.141.277-7.386 2.734-12.573 7.708-15.56 14.922a43.97 43.97 0 0 0-3.259 12.296c-.18 1.268.077 2.396.773 3.384.69.929 1.58 1.428 2.67 1.499 2.246.198 4.354-.108 6.324-.917a52.295 52.295 0 0 0 5.85-3.054c2.55-1.676 4.215-2.531 4.994-2.566.84-.038.853.74.041 2.337a70.428 70.428 0 0 1-6.662 6.871c-2.33 2.085-4.992 3.856-7.984 5.311-1.899.926-3.837 1.434-5.815 1.524-1.918.087-3.745-.13-5.48-.652a12.896 12.896 0 0 1-4.497-2.675c-1.323-1.26-2.31-2.775-2.96-4.546a9.131 9.131 0 0 1-.532-2.765c-.026-.898.01-1.8.104-2.704.095-.904.223-1.78.383-2.627.215-.91.402-1.788.563-2.635 1.293-7.317 3.913-13.645 7.861-18.983 3.949-5.338 9.32-9.63 16.116-12.878 1.958-.929 3.96-1.41 6.003-1.442a21.483 21.483 0 0 1 6.126.802c1.609.467 2.811 1.402 3.606 2.806.85 1.341 1.082 2.83.695 4.468-.579 2.785-1.548 5.259-2.908 7.42a24.566 24.566 0 0 1-4.966 5.714c-.223.19-.457.261-.702.212a1.42 1.42 0 0 1-.664-.33 1.154 1.154 0 0 1-.239-.619.81.81 0 0 1 .292-.733c.114-.065.168-.128.162-.187a.976.976 0 0 1 .253-.192Zm13.08 9.035a34.68 34.68 0 0 1 2.462-1.642 22.17 22.17 0 0 1 2.938-1.393c1.045-.407 2.194-.669 3.447-.786 1.247-.176 2.632-.179 4.153-.008.55.095.903.319 1.057.672.154.353.193.771.119 1.254-.081.424-.245.911-.494 1.462-.194.49-.394.918-.6 1.287-.303.614-.772 1.385-1.406 2.314l-1.586 2.321c.691-.331 1.556-.73 2.595-1.197 1.034-.527 1.973-.78 2.818-.758-1.612 3.313-3.72 5.838-6.324 7.575-1.408 1.024-2.874 1.12-4.397.29-.825-.443-1.358-.989-1.6-1.637-.248-.71-.352-1.484-.311-2.326.026-.361.103-.814.232-1.36.129-.546.478-1.312 1.046-2.297a323.38 323.38 0 0 0-4.754 3.185c-1.696 1.157-2.896 2.47-3.6 3.942a81.644 81.644 0 0 1-1.29 2.578 39.767 39.767 0 0 1-.917 1.751c-.255.492-.56 1.076-.918 1.752a315.11 315.11 0 0 0-1.209 2.484c-1.558 3.25-3.368 4.472-5.431 3.666-2.248-.858-2.97-3.075-2.166-6.65.981-2.985 1.885-5.515 2.712-7.592.88-2.14 1.672-3.946 2.375-5.417a94.262 94.262 0 0 1 1.998-3.69 43.463 43.463 0 0 1 1.552-2.68c.477-.681 1.158-1.432 2.043-2.252.88-.88 1.647-1.364 2.3-1.454.691-.331 1.348-.391 1.97-.18.622.212 1.261.603 1.917 1.174a4.23 4.23 0 0 1 .837 3.111c-.138 1.086-.661 1.92-1.569 2.5Zm39.477 7.568a316.393 316.393 0 0 1-3.865 4.945 37.98 37.98 0 0 1-4.015 4.32 19.779 19.779 0 0 1-4.836 3.28c-1.784.86-3.842 1.373-6.174 1.54a7.833 7.833 0 0 1-3.566-.469c-1.059-.372-1.954-.931-2.687-1.678a8.619 8.619 0 0 1-1.711-2.802c-.347-1.124-.46-2.319-.34-3.584.441-4.879 1.832-8.931 4.175-12.157 2.337-3.285 5.641-5.894 9.912-7.828a9.821 9.821 0 0 1 3.203-.505c1.139-.051 2.205.08 3.198.395a7.015 7.015 0 0 1 2.653 1.32 6.313 6.313 0 0 1 1.929 2.252c.379.822.557 1.744.533 2.765.037 1.018-.137 2.046-.52 3.083a8.734 8.734 0 0 1-1.462 2.676 5.52 5.52 0 0 1-2.176 1.808 38.24 38.24 0 0 1-4.955 2.024c-1.633.554-3.387.784-5.262.689a5.787 5.787 0 0 0-1.438.065c-.48.022-.748.364-.806 1.026a28.643 28.643 0 0 1-.425 2.18c-.178.667-.026 1.32.456 1.958.416.581.916.769 1.498.562a55.951 55.951 0 0 0 1.657-.615 27.192 27.192 0 0 0 6.121-3.067 41.073 41.073 0 0 1 6.004-3.331c.403-.199.803-.427 1.199-.685.397-.258.964-.313 1.7-.167Zm-7.75-4.597c.592-.747.782-1.596.572-2.546-.151-.953-.666-1.62-1.544-2-.885-.44-1.64-.465-2.265-.077a7.736 7.736 0 0 0-1.752 1.52c-1.026 1.246-1.77 2.6-2.234 4.06a22.91 22.91 0 0 1-.519 1.193c-.205.37-.144.697.184.982.197.17.619.182 1.267.032a13.228 13.228 0 0 0 2.278-.733 23.27 23.27 0 0 0 2.424-1.1c.74-.453 1.269-.897 1.589-1.331Zm5.154 8.224c.456-3.44 1.422-6.903 2.897-10.39 1.476-3.485 3.958-6.507 7.448-9.065 1.636-1.154 3.307-1.62 5.014-1.397 1.761.16 3.5.411 5.218.753.922.198 1.629.676 2.123 1.434.487.697.863 1.49 1.128 2.378.789 2.604.801 5.273.037 8.007a37.45 37.45 0 0 1-1.407 4.203 43.588 43.588 0 0 1-1.947 4.227 31.997 31.997 0 0 1-2.088 3.694c-.683 1.051-1.328 1.86-1.937 2.428-.482.621-1.181 1.193-2.094 1.714a13.79 13.79 0 0 1-2.874 1.12c-.996.286-2.037.423-3.121.412-1.079.049-2.022-.058-2.83-.322-.807-.263-1.599-.677-2.375-1.242a10.265 10.265 0 0 1-1.904-1.983 9.007 9.007 0 0 1-1.252-2.733c-.216-1.01-.228-2.09-.036-3.238Zm10.153 2.33c-.086.363.032.658.355.883.376.163.706.148.989-.045 2.099-1.354 3.785-2.93 5.059-4.728a34.056 34.056 0 0 0 3.502-5.918 3.647 3.647 0 0 0 .434-2.089 10.253 10.253 0 0 0-.31-2.325 5.429 5.429 0 0 0-.355-.884c-.088-.296-.288-.497-.599-.603-.186-.052-.664.3-1.435 1.055-.717.692-1.555 1.69-2.515 2.993-.9 1.301-1.808 2.842-2.722 4.623a25.454 25.454 0 0 0-1.999 5.58c-.2.429-.335.915-.404 1.458Z" fill="url(#a)"/><defs><linearGradient id="a" x1="102.509" y1="15.617" x2="106.93" y2="113.142" gradientUnits="userSpaceOnUse"><stop stop-color="#FBB14B"/><stop offset="1" stop-color="#FF5F4F"/></linearGradient></defs></svg>