<svg width="86" height="38" fill="none" xmlns="http://www.w3.org/2000/svg"><path d="M.25 25.5V.5h7.5v5h-2.5v15h2.5v5H.25Zm10-2.5V3h20v5h-15v2.5h12.5v5h-12.5V23h-5Zm37.5-5v-2.5h-10V18h10Zm0-7.5V8h-10v2.5h10Zm-15 12.5V3h17.5l2.5 2.5v5l-2.5 2.5 2.5 2.5v5l-2.5 2.5h-17.5Zm25 0-2.5-2.5V3h5l5 5 5-5h5v20h-5V10.5l-5 5-5-5V23h-2.5Zm20 2.5v-5h2.5v-15h-2.5v-5h7.5v25h-7.5Z" fill="#fff"/><path d="M9.915 30.248c.06-.185.121-.362.183-.53a1.14 1.14 0 0 1 .36-.438 4.23 4.23 0 0 0 1.234-1.316c.3-.51.592-1.037.875-1.58a27.9 27.9 0 0 0 1.1-2.362 21.68 21.68 0 0 1 1.175-2.34 18.16 18.16 0 0 1 1.29-1.843 9.948 9.948 0 0 1 1.625-1.604 3.894 3.894 0 0 1 1.28-.668c.445-.148.936-.172 1.473-.073.705.143 1.19.46 1.456.953.265.474.25 1.034-.046 1.677a4.078 4.078 0 0 1-.594.97c-.24.291-.507.558-.8.802a56.846 56.846 0 0 1-2.194 1.773 57.05 57.05 0 0 1-2.299 1.626.67.67 0 0 0-.17.13 1.63 1.63 0 0 0-.095.179 17.252 17.252 0 0 1-1.25 2.367c-.11.17-.156.297-.137.38.036.082.155.145.356.188.236.06.463.127.682.203.22.076.446.135.681.178.42.086.794.057 1.123-.087a3.02 3.02 0 0 0 .928-.681c.066-.052.13-.121.194-.207a1.14 1.14 0 0 1 .193-.206.618.618 0 0 1 .221-.132c.066-.036.133-.03.2.018.086.064.122.138.108.222a.448.448 0 0 1-.068.227c-.047.085-.102.17-.166.256a1.88 1.88 0 0 0-.169.205c-.634 1.022-1.355 1.679-2.163 1.972-.807.294-1.767.25-2.88-.13a1.561 1.561 0 0 0-.704-.102c-.2.023-.388.13-.565.319-.064.069-.13.129-.194.181-.066.036-.131.08-.196.132-.441.28-.822.377-1.141.287-.32-.073-.62-.346-.902-.82l-.004-.125Zm6.554-6.193a8.562 8.562 0 0 1 1.232-1.341c.454-.415.89-.847 1.31-1.294.16-.189.313-.36.458-.515a7.11 7.11 0 0 0 .458-.54l.143-.205c.048-.069.038-.135-.031-.2-.053-.081-.12-.104-.203-.068a.976.976 0 0 0-.197.082 2.297 2.297 0 0 0-.688.372 7.452 7.452 0 0 0-.534.518c-.418.48-.785.985-1.102 1.512-.3.527-.582 1.087-.846 1.679Zm9.494 4.416c-.24.341-.454.657-.645.946-.174.29-.4.539-.676.748a2.37 2.37 0 0 1-.688.398 1.38 1.38 0 0 1-.623.07.653.653 0 0 1-.457-.21c-.104-.146-.136-.354-.095-.622a.684.684 0 0 1 .02-.15c.015-.068.037-.144.068-.228a1.36 1.36 0 0 0 .065-.302 8.295 8.295 0 0 1-.73.649 14.62 14.62 0 0 1-.733.524 3.428 3.428 0 0 1-.788.376 3.954 3.954 0 0 1-.77.15 1.95 1.95 0 0 1-.7-.001 1.224 1.224 0 0 1-.56-.257.904.904 0 0 1-.269-.592 4.168 4.168 0 0 1 .072-1.653c.15-.538.333-1.07.55-1.594.402-.963.943-1.773 1.622-2.43.695-.673 1.564-1.143 2.606-1.41a3.256 3.256 0 0 1 1.499-.05c.487.1.928.353 1.325.757l.258.242c.086.08.114.188.085.322a.379.379 0 0 1-.267.259 3.387 3.387 0 0 1-.397.088c-.232.04-.456.082-.671.122-.2.023-.416.039-.65.046-1.147.072-2.02.442-2.615 1.112-.596.653-1.01 1.517-1.242 2.592l.006.175a.555.555 0 0 0 .08.172.377.377 0 0 0 .154.12c.084.014.183-.014.298-.084.114-.07.196-.124.245-.159a1.6 1.6 0 0 0 .171-.105 1 1 0 0 1 .146-.13c.065-.052.138-.121.219-.207.178-.173.315-.31.412-.414l.29-.31c.096-.12.208-.273.335-.461.128-.188.319-.46.574-.82.08-.119.192-.256.337-.41.145-.155.283-.277.413-.364.196-.14.376-.255.54-.343.163-.106.338-.103.525.008.187.11.292.257.315.44a1.25 1.25 0 0 1-.008.55 3.38 3.38 0 0 1-.253.684c-.093.22-.194.448-.303.685l-.327.711c-.093.236-.193.473-.302.71a.896.896 0 0 0-.068.228c.002.066.045.115.13.146.034.032.084.038.15.02a.558.558 0 0 0 .173-.081 4.861 4.861 0 0 0 .712-.399c.148-.071.295-.16.442-.264Zm6.32.467c.054.132.171.145.351.039.18-.123.367-.262.562-.419.195-.173.381-.33.56-.468.18-.14.295-.185.346-.137.103.08.14.17.109.272a.779.779 0 0 1-.091.278 3.573 3.573 0 0 1-.935 1.256c-.39.313-.85.545-1.379.696a.969.969 0 0 1-.65-.004 1.62 1.62 0 0 1-.586-.33 2.45 2.45 0 0 1-.443-.561 1.82 1.82 0 0 1-.173-.72c-.009-.267 0-.526.025-.776.041-.252.117-.496.226-.733.093-.237.21-.482.352-.737a3.46 3.46 0 0 0 .349-.812c-.212.157-.44.314-.685.473a8.285 8.285 0 0 0-.686.472c-.228.158-.439.34-.632.546a2.838 2.838 0 0 0-.478.692c-.125.287-.24.583-.347.886a9.771 9.771 0 0 1-.372.863c-.125.288-.3.51-.53.668-.211.14-.486.157-.823.052-.337-.106-.56-.282-.667-.529a1.896 1.896 0 0 1-.128-.87c.012-.135.033-.269.062-.403l.137-.405c.31-.71.646-1.43 1.006-2.159.36-.729.729-1.441 1.106-2.137.126-.238.277-.468.454-.69.176-.223.378-.413.606-.57.197-.124.394-.214.592-.27.198-.057.408-.014.63.129.204.143.285.324.242.542l-.078.678c-.016.034-.04.076-.071.128a1.63 1.63 0 0 0-.094.178 2.63 2.63 0 0 0-.143.23c.478-.183.923-.348 1.335-.495.429-.147.86-.203 1.295-.167.134.012.26.016.376.013.133-.005.267.008.401.036.352.072.556.174.61.306.07.114.028.332-.129.654a73.356 73.356 0 0 0-.773 1.626l-.748 1.626a2.822 2.822 0 0 0-.16.455c-.045.169-.022.368.069.598Zm12.88-12.48a.59.59 0 0 1 .248-.082l.2-.007c.1-.02.2-.023.3-.01.1.013.184.027.251.042.068.014.094.047.078.097a19.24 19.24 0 0 1-.486 1.192c-.186.44-.388.905-.606 1.396-.217.49-.443.981-.678 1.473a83.27 83.27 0 0 1-.608 1.295 91.6 91.6 0 0 0-1.514 3.477 157.025 157.025 0 0 1-1.438 3.5c-.11.236-.211.431-.307.584a3.559 3.559 0 0 1-.358.538 1.35 1.35 0 0 1-.316.285.402.402 0 0 1-.371.112.38.38 0 0 1-.282-.216 1.88 1.88 0 0 1-.136-.32.92.92 0 0 1-.083-.273c-.02-.1-.033-.232-.038-.399a5.467 5.467 0 0 1 .029-.651c-.146.138-.316.302-.51.492a4.234 4.234 0 0 1-.683.523 5.613 5.613 0 0 1-.985.482c-.38.13-.827.21-1.343.245-.483.032-.877-.055-1.184-.262-.307-.223-.469-.576-.484-1.06-.034-1.049.144-1.989.534-2.818.407-.83.86-1.538 1.358-2.121a5.58 5.58 0 0 1 1.093-.987 6.717 6.717 0 0 1 1.302-.743c.855-.395 1.584-.269 2.188.379.156.178.276.257.358.238.083-.036.18-.148.29-.335.41-.747.819-1.486 1.23-2.216a42.18 42.18 0 0 1 1.355-2.17c.223-.325.463-.625.721-.9.258-.292.55-.552.876-.78Zm-5.016 8.12c.094-.203.083-.295-.033-.274a1.55 1.55 0 0 0-.3.035 2.97 2.97 0 0 0-1.21.49 4.68 4.68 0 0 0-1.018.984 5.22 5.22 0 0 0-.734 1.3 3.687 3.687 0 0 0-.28 1.384c.001.05.02.1.054.149a.21.21 0 0 0 .176.019 4.999 4.999 0 0 0 1.126-.762 5.54 5.54 0 0 0 .894-.98c.272-.36.51-.734.714-1.124.22-.408.424-.815.611-1.221Zm8.158-6.447c.215-.04.383-.012.503.084.136.079.19.236.165.47a3.963 3.963 0 0 1-.356 1.387 3.54 3.54 0 0 1-.864 1.13c-.275.242-.557.301-.845.177-.27-.124-.428-.361-.473-.71-.023-.2.02-.434.128-.704a4.31 4.31 0 0 1 .475-.791c.19-.273.4-.505.628-.696.227-.191.44-.307.639-.347Zm-2.998 9.454a.782.782 0 0 0-.045.152.82.82 0 0 0-.018.2.554.554 0 0 0 .08.173.409.409 0 0 0 .227.042.963.963 0 0 0 .123-.054c.05-.018.107-.045.173-.08.082-.037.156-.064.222-.083.066-.035.123-.07.172-.105.213-.108.369-.196.467-.266a1.91 1.91 0 0 1 .416-.264c-.219.441-.464.866-.734 1.275a3.589 3.589 0 0 1-.993 1.008 1.64 1.64 0 0 0-.172.106c-.049.035-.106.07-.172.105-.097.07-.245.142-.443.215a3.232 3.232 0 0 1-.57.169c-.232.041-.399.038-.5-.009a1.06 1.06 0 0 1-.153-.095 1.01 1.01 0 0 1-.387-.362 2.716 2.716 0 0 1-.167-.52 1.81 1.81 0 0 1-.02-.6c.028-.184.087-.42.178-.706.107-.303.2-.532.278-.684a58.848 58.848 0 0 1 .958-2.082l.468-1.017c.156-.338.328-.703.515-1.092.094-.187.197-.357.309-.51.128-.155.241-.275.338-.362.163-.139.36-.22.593-.245a1 1 0 0 1 .63.13c.17.128.267.274.289.44.038.15.043.316.016.5-.026.218-.078.42-.156.606a4.909 4.909 0 0 1-.233.533l-1.642 3.38-.047.102Zm8.107.66c.054.13.172.144.352.038.179-.123.366-.263.561-.419.195-.173.382-.33.56-.469.18-.139.295-.184.346-.136.103.08.14.17.11.271a.778.778 0 0 1-.092.279 3.573 3.573 0 0 1-.935 1.256 3.87 3.87 0 0 1-1.378.696.97.97 0 0 1-.65-.004 1.62 1.62 0 0 1-.587-.33 2.445 2.445 0 0 1-.443-.562 1.822 1.822 0 0 1-.173-.72c-.009-.266 0-.525.025-.776.042-.251.117-.495.226-.732.093-.237.21-.483.352-.737a3.48 3.48 0 0 0 .349-.812c-.212.157-.44.314-.685.473a7.77 7.77 0 0 0-.685.472 3.9 3.9 0 0 0-.633.546 2.839 2.839 0 0 0-.478.691c-.124.288-.24.584-.347.887a9.77 9.77 0 0 1-.372.863c-.124.288-.3.51-.53.668-.211.14-.486.157-.823.052-.337-.106-.56-.282-.667-.529a1.896 1.896 0 0 1-.128-.87c.012-.135.033-.269.062-.403l.137-.405c.31-.71.646-1.43 1.006-2.16.36-.728.729-1.44 1.107-2.137.125-.237.276-.467.453-.69.176-.222.378-.412.607-.57.196-.123.393-.213.591-.27.198-.056.408-.013.63.13.205.143.285.324.242.542l-.078.678c-.015.034-.04.076-.07.127a1.63 1.63 0 0 0-.095.179 2.63 2.63 0 0 0-.143.23 64.46 64.46 0 0 1 1.335-.495 3.15 3.15 0 0 1 1.295-.167c.134.012.26.016.376.012.133-.004.267.008.401.037.353.072.556.174.61.305.07.115.028.333-.129.655a73.356 73.356 0 0 0-.773 1.626l-.748 1.626a2.82 2.82 0 0 0-.16.455c-.045.168-.022.368.07.598Zm-.06 5.279c.442.286.854.405 1.236.36.382-.046.76-.225 1.134-.538.243-.208.517-.5.822-.877.322-.361.634-.763.937-1.207a12.7 12.7 0 0 0 .858-1.304 8.44 8.44 0 0 0 .614-1.12c-.328.16-.64.32-.935.48a21.9 21.9 0 0 1-.886.455c-.426.214-.817.252-1.172.113-.337-.122-.588-.405-.752-.85a2.663 2.663 0 0 1-.187-1.12 4.84 4.84 0 0 1 .24-1.108c.362-1.18.922-2.19 1.678-3.032a9.52 9.52 0 0 1 2.783-2.117c.575-.286 1.139-.38 1.692-.281.553.082 1.078.323 1.575.724.548.448.518.816-.09 1.103-.18.09-.286.185-.316.286a.708.708 0 0 0 .012.374c.097.43.111.856.041 1.275-.07.402-.165.814-.285 1.235a27.87 27.87 0 0 1-1.426 3.874 16.293 16.293 0 0 1-2.113 3.52 7.204 7.204 0 0 1-1.774 1.61 3.19 3.19 0 0 1-1.31.518c-.447.082-.848.045-1.203-.11-.355-.139-.647-.396-.876-.772-.229-.376-.328-.873-.298-1.491Zm4.475-5.475.125-.004c.87-.412 1.562-.968 2.072-1.669a12.97 12.97 0 0 0 1.377-2.296c.094-.203.083-.295-.033-.274a1.55 1.55 0 0 0-.3.034 2.987 2.987 0 0 0-1.234.491c-.392.263-.74.6-1.043 1.01a5.219 5.219 0 0 0-.734 1.3 3.803 3.803 0 0 0-.23 1.408Zm12.575-6.866c.37.137.653.337.844.597.208.243.31.565.306.966-.011.15-.064.319-.158.505-.078.186-.18.365-.308.535a3.19 3.19 0 0 1-.412.414 1.144 1.144 0 0 1-.443.24c-.115.037-.216.024-.301-.04-.051-.032-.07-.073-.054-.123a.582.582 0 0 1 .095-.154 3.05 3.05 0 0 0 .217-.257l.24-.308c.065-.069.12-.137.169-.206.063-.085.06-.177-.01-.274-.07-.098-.154-.145-.254-.142a3.698 3.698 0 0 0-1.829.685c-.44.315-.845.695-1.214 1.14-.129.138-.167.248-.114.33a.646.646 0 0 0 .282.215c.27.108.507.226.712.352.409.287.645.638.709 1.053.063.398-.067.786-.388 1.163-.58.653-1.24 1.108-1.982 1.366-.725.274-1.514.366-2.367.278-.486-.051-.825-.248-1.02-.592-.178-.345-.156-.712.065-1.103.03-.068.062-.135.093-.203.047-.085.13-.113.248-.083.083.014.126.054.128.12a.65.65 0 0 1 .032.2c-.006.317.075.514.244.592.17.078.395.095.677.053a6.97 6.97 0 0 0 1.191-.29 4.608 4.608 0 0 0 1.18-.664 17.29 17.29 0 0 0-.702-.052c-.2-.01-.393-.028-.577-.056-.703-.06-1.194-.302-1.475-.727-.28-.44-.273-.983.023-1.626a8.946 8.946 0 0 1 1.284-2.069 6.853 6.853 0 0 1 1.902-1.538 4.358 4.358 0 0 1 1.435-.472 3.276 3.276 0 0 1 1.532.175Z" fill="url(#a)"/><defs><linearGradient id="a" x1="40.244" y1="11.017" x2="41.41" y2="46.512" gradientUnits="userSpaceOnUse"><stop stop-color="#FEB095"/><stop offset="1" stop-color="#FE7C4E"/></linearGradient></defs></svg>