<svg width="213" height="90" fill="none" xmlns="http://www.w3.org/2000/svg"><g clip-path="url(#a)"><path d="M.161 62.25V-.25h18.75v12.5h-6.25v37.5h6.25v12.5H.161Zm25-6.25V6h50v12.5h-37.5v6.25h31.25v12.5h-31.25V56h-12.5Zm93.75-12.5v-6.25h-25v6.25h25Zm0-18.75V18.5h-25v6.25h25ZM81.411 56V6h43.75l6.25 6.25v12.5l-6.25 6.25 6.25 6.25v12.5l-6.25 6.25h-43.75Zm62.5 0-6.25-6.25V6h12.5l12.5 12.5 12.5-12.5h12.5v50h-12.5V24.75l-12.5 12.5-12.5-12.5V56h-6.25Zm50 6.25v-12.5h6.25v-37.5h-6.25V-.25h18.75v62.5h-18.75Z" fill="#fff"/><path d="M32.972 74.978c.146-.445.292-.87.44-1.275.186-.406.475-.756.866-1.049 1.252-.882 2.239-1.934 2.96-3.159a83.082 83.082 0 0 0 2.099-3.79 66.407 66.407 0 0 0 2.639-5.67 52.91 52.91 0 0 1 2.82-5.616 43.475 43.475 0 0 1 3.1-4.424 23.872 23.872 0 0 1 3.898-3.85c.976-.753 2-1.287 3.07-1.602 1.069-.355 2.248-.414 3.536-.176 1.692.345 2.857 1.107 3.495 2.286.637 1.14.6 2.482-.11 4.026a9.789 9.789 0 0 1-1.426 2.328c-.578.7-1.217 1.34-1.919 1.924a136.29 136.29 0 0 1-5.266 4.255 137.32 137.32 0 0 1-5.517 3.904 1.62 1.62 0 0 0-.41.313 3.923 3.923 0 0 0-.226.428 41.43 41.43 0 0 1-3 5.681c-.266.41-.376.713-.33.912.086.197.371.348.855.452.565.142 1.11.304 1.637.487.526.182 1.07.325 1.634.426 1.007.207 1.905.138 2.695-.209a7.249 7.249 0 0 0 2.228-1.633c.156-.126.311-.29.465-.496.153-.205.308-.37.464-.495.195-.167.371-.273.53-.318.157-.085.318-.07.482.044.205.153.29.33.257.532.005.16-.05.342-.163.546a5.473 5.473 0 0 1-.4.613c-.155.165-.29.33-.404.494-1.522 2.45-3.252 4.028-5.19 4.733-1.94.704-4.244.6-6.914-.314-.608-.22-1.17-.301-1.69-.244-.478.055-.93.31-1.355.765-.155.165-.31.31-.466.435a3 3 0 0 0-.47.316c-1.06.675-1.972.905-2.74.69-.766-.175-1.487-.832-2.164-1.97l-.01-.3Zm15.73-14.864a20.56 20.56 0 0 1 2.958-3.22 57.551 57.551 0 0 0 3.14-3.104c.386-.453.753-.865 1.101-1.237.387-.413.753-.845 1.099-1.296l.344-.492c.115-.164.09-.323-.075-.478-.126-.196-.288-.25-.486-.164a2.32 2.32 0 0 0-.474.196 5.522 5.522 0 0 0-1.652.894 18.06 18.06 0 0 0-1.28 1.243 25.602 25.602 0 0 0-2.645 3.629 46.24 46.24 0 0 0-2.031 4.029ZM71.488 70.71c-.574.82-1.09 1.577-1.547 2.272a6.322 6.322 0 0 1-1.624 1.795 5.7 5.7 0 0 1-1.65.954c-.554.179-1.053.235-1.495.17a1.569 1.569 0 0 1-1.097-.505c-.251-.352-.327-.85-.228-1.493-.003-.08.014-.2.048-.362a4.42 4.42 0 0 1 .163-.546 3.17 3.17 0 0 0 .157-.725 19.89 19.89 0 0 1-1.751 1.558c-.547.419-1.134.838-1.76 1.259-.589.38-1.22.68-1.892.902-.595.18-1.212.3-1.85.361-.597.1-1.157.098-1.68-.004a2.942 2.942 0 0 1-1.341-.617c-.372-.348-.587-.821-.646-1.42-.205-1.393-.148-2.716.172-3.967a33.366 33.366 0 0 1 1.318-3.826c.966-2.313 2.264-4.256 3.894-5.83 1.669-1.616 3.753-2.745 6.254-3.388 1.27-.322 2.47-.36 3.598-.118 1.168.242 2.228.847 3.18 1.817l.62.58c.206.193.274.45.204.773a.908.908 0 0 1-.64.622 8.27 8.27 0 0 1-.954.211c-.557.099-1.094.196-1.611.293-.479.056-.998.093-1.557.111-2.756.171-4.849 1.06-6.278 2.668-1.43 1.568-2.424 3.641-2.981 6.221l.013.42c.045.159.11.296.194.414a.905.905 0 0 0 .37.288c.2.033.438-.035.713-.204.275-.169.47-.295.588-.38a3.92 3.92 0 0 0 .412-.253c.116-.124.233-.228.35-.311.156-.126.331-.291.525-.498.426-.414.756-.745.988-.993l.697-.743c.23-.288.499-.657.804-1.107.306-.45.765-1.106 1.378-1.967.19-.286.46-.615.808-.987a5.92 5.92 0 0 1 .993-.873c.47-.335.9-.61 1.294-.823.392-.253.813-.246 1.261.019.45.265.7.617.755 1.056.093.397.087.837-.018 1.321a8.1 8.1 0 0 1-.607 1.64 57.663 57.663 0 0 1-.728 1.646l-.785 1.706a31.527 31.527 0 0 1-.726 1.705 2.142 2.142 0 0 0-.162.546c.005.16.109.276.311.35.083.077.203.093.362.048a1.32 1.32 0 0 0 .414-.194c.197-.086.453-.215.768-.385s.629-.361.942-.572a7.28 7.28 0 0 0 1.06-.635Zm15.168 1.123c.13.316.411.347.843.092.431-.294.88-.629 1.349-1.005.466-.415.915-.79 1.344-1.124.43-.334.706-.444.83-.328.246.192.333.41.261.652a1.866 1.866 0 0 1-.219.668c-.56 1.219-1.309 2.224-2.244 3.015-.936.751-2.039 1.308-3.308 1.67a2.326 2.326 0 0 1-1.56-.01c-.486-.144-.954-.408-1.407-.794a5.873 5.873 0 0 1-1.064-1.345 4.372 4.372 0 0 1-.416-1.728c-.02-.64 0-1.26.06-1.863.101-.603.282-1.19.544-1.758.222-.568.503-1.157.844-1.77a8.27 8.27 0 0 0 .837-1.948c-.508.377-1.056.755-1.644 1.135-.55.338-1.097.716-1.644 1.135a9.365 9.365 0 0 0-1.519 1.31 6.817 6.817 0 0 0-1.147 1.659c-.298.69-.575 1.4-.832 2.128a23.419 23.419 0 0 1-.894 2.07c-.298.69-.72 1.225-1.269 1.603-.51.337-1.168.379-1.977.125-.809-.253-1.342-.676-1.602-1.268-.26-.632-.363-1.329-.307-2.091.03-.321.08-.643.149-.965l.329-.972a122.58 122.58 0 0 1 2.414-5.182c.864-1.75 1.75-3.46 2.657-5.13.301-.57.664-1.122 1.087-1.656a6.7 6.7 0 0 1 1.457-1.369 5.52 5.52 0 0 1 1.42-.647c.475-.136.979-.032 1.51.31.492.345.686.779.582 1.302-.063.523-.125 1.065-.187 1.627a2.939 2.939 0 0 1-.17.306 3.92 3.92 0 0 0-.227.428 6.323 6.323 0 0 0-.342.551c1.146-.438 2.214-.833 3.203-1.186a7.561 7.561 0 0 1 3.109-.402c.32.03.621.04.901.03a4 4 0 0 1 .964.089c.846.172 1.334.416 1.464.732.169.275.066.799-.31 1.571a175.238 175.238 0 0 0-1.855 3.903l-1.795 3.901c-.15.325-.278.69-.385 1.094-.108.403-.052.882.166 1.435Zm30.914-29.951c.236-.128.434-.195.594-.2l.479-.016a2.18 2.18 0 0 1 .72-.023c.241.032.442.065.604.1.161.035.223.113.187.234-.294.81-.683 1.763-1.168 2.86a221.825 221.825 0 0 1-1.453 3.35 144.724 144.724 0 0 1-1.627 3.535 205.221 205.221 0 0 1-1.461 3.11 218.652 218.652 0 0 0-3.633 8.343 376.621 376.621 0 0 1-3.452 8.398 13.172 13.172 0 0 1-.735 1.405c-.188.366-.475.796-.859 1.289a3.238 3.238 0 0 1-.758.685c-.272.25-.57.339-.892.27-.323-.07-.548-.243-.677-.519a4.488 4.488 0 0 1-.325-.77 2.21 2.21 0 0 1-.201-.653 6.074 6.074 0 0 1-.091-.958c-.013-.4.01-.92.07-1.563-.35.332-.757.725-1.223 1.181-.427.414-.974.832-1.64 1.255-.667.422-1.455.808-2.364 1.158-.91.31-1.985.505-3.223.586-1.158.078-2.105-.131-2.842-.627-.737-.536-1.125-1.384-1.162-2.543-.082-2.519.346-4.774 1.282-6.766.977-1.993 2.063-3.69 3.258-5.09a13.398 13.398 0 0 1 2.626-2.367 16.126 16.126 0 0 1 3.124-1.784c2.05-.948 3.801-.645 5.252.908.374.428.66.619.859.572.197-.086.428-.354.694-.803a608.404 608.404 0 0 1 2.95-5.32 103.36 103.36 0 0 1 3.254-5.21 18.498 18.498 0 0 1 1.732-2.157c.618-.7 1.318-1.324 2.101-1.87Zm-12.039 19.486c.224-.488.197-.707-.082-.658-.279.01-.519.037-.717.084-.996.152-1.964.544-2.904 1.175a11.26 11.26 0 0 0-2.445 2.362 12.53 12.53 0 0 0-1.76 3.12 8.846 8.846 0 0 0-.674 3.323c.004.12.048.239.132.356a.505.505 0 0 0 .421.046 12.008 12.008 0 0 0 2.703-1.83 13.304 13.304 0 0 0 2.145-2.351 19.196 19.196 0 0 0 1.714-2.698 50.894 50.894 0 0 0 1.467-2.93Zm19.577-15.471c.517-.098.92-.03 1.207.2.327.19.459.565.397 1.127a9.504 9.504 0 0 1-.854 3.33 8.485 8.485 0 0 1-2.073 2.71c-.662.582-1.338.724-2.028.427-.65-.3-1.028-.867-1.135-1.704-.056-.478.046-1.042.306-1.69.299-.651.679-1.284 1.139-1.9a8.635 8.635 0 0 1 1.507-1.67c.546-.458 1.057-.735 1.534-.83Zm-7.193 22.688a1.823 1.823 0 0 0-.109.364 2.022 2.022 0 0 0-.044.481c.045.159.109.297.193.414.123.076.304.11.544.102.118-.044.217-.087.296-.13.118-.043.256-.108.414-.193.197-.087.375-.152.534-.198.157-.085.294-.17.412-.253.512-.257.885-.47 1.12-.638.233-.207.567-.418 1-.633a28.953 28.953 0 0 1-1.762 3.06 8.624 8.624 0 0 1-2.384 2.42 3.92 3.92 0 0 0-.412.253 3.92 3.92 0 0 1-.412.254c-.235.168-.589.34-1.064.515a7.73 7.73 0 0 1-1.368.405c-.557.098-.957.092-1.201-.02a2.51 2.51 0 0 1-.367-.228 2.427 2.427 0 0 1-.929-.87 6.5 6.5 0 0 1-.4-1.248 4.347 4.347 0 0 1-.047-1.44c.066-.442.208-1.007.426-1.694.257-.729.479-1.277.668-1.643.41-.934.802-1.807 1.176-2.62.374-.813.749-1.606 1.124-2.378l1.122-2.438c.374-.813.786-1.687 1.236-2.622.226-.448.473-.856.741-1.225.308-.37.579-.66.813-.867.389-.334.863-.53 1.422-.587a2.396 2.396 0 0 1 1.51.31c.41.307.642.66.695 1.058.091.357.104.757.038 1.2a5.457 5.457 0 0 1-.373 1.452c-.147.405-.333.832-.559 1.28l-3.941 8.113-.112.244Zm19.456 1.582c.13.316.411.347.843.092.431-.294.88-.629 1.348-1.005.467-.415.916-.79 1.345-1.124.429-.335.706-.444.83-.328.246.192.333.41.261.652a1.853 1.853 0 0 1-.219.668c-.561 1.219-1.309 2.224-2.244 3.015-.936.751-2.039 1.308-3.308 1.67a2.325 2.325 0 0 1-1.561-.01c-.485-.144-.953-.408-1.406-.794a5.874 5.874 0 0 1-1.064-1.345 4.383 4.383 0 0 1-.416-1.728c-.02-.64 0-1.26.06-1.863.101-.603.282-1.19.544-1.758.222-.568.503-1.158.843-1.77.38-.652.659-1.301.838-1.948-.508.377-1.056.755-1.644 1.135-.55.338-1.098.716-1.644 1.135a9.322 9.322 0 0 0-1.519 1.31 6.81 6.81 0 0 0-1.147 1.659c-.298.69-.576 1.4-.832 2.128a23.421 23.421 0 0 1-.894 2.07c-.298.69-.721 1.225-1.269 1.603-.51.337-1.169.379-1.977.125-.809-.254-1.343-.676-1.602-1.268-.26-.632-.363-1.329-.307-2.091a7.88 7.88 0 0 1 .149-.965l.329-.972c.745-1.705 1.55-3.433 2.414-5.182.864-1.75 1.75-3.46 2.656-5.13a10.85 10.85 0 0 1 1.088-1.656c.423-.535.908-.99 1.456-1.369a5.52 5.52 0 0 1 1.42-.647c.476-.136.98-.032 1.511.31.491.345.685.779.582 1.302a160.08 160.08 0 0 0-.188 1.627 2.863 2.863 0 0 1-.17.306 3.987 3.987 0 0 0-.226.428 6.408 6.408 0 0 0-.343.551c1.147-.438 2.215-.833 3.204-1.186a7.56 7.56 0 0 1 3.109-.402c.321.03.621.04.901.03.32-.01.641.02.963.089.846.172 1.335.416 1.465.732.169.275.065.799-.31 1.571a175.222 175.222 0 0 0-1.855 3.903l-1.796 3.901c-.149.326-.278.69-.385 1.094-.107.403-.051.882.167 1.435Zm-.147 12.672c1.063.685 2.053.973 2.97.862.917-.11 1.823-.54 2.72-1.29.584-.499 1.242-1.2 1.973-2.105a28.324 28.324 0 0 0 2.248-2.896 30.482 30.482 0 0 0 2.06-3.13c.648-1.02 1.139-1.918 1.474-2.689-.788.386-1.536.77-2.244 1.154-.708.384-1.416.747-2.126 1.09-1.024.515-1.961.606-2.812.273-.81-.293-1.412-.974-1.807-2.041-.349-.91-.498-1.805-.447-2.687.091-.924.282-1.81.575-2.66.869-2.83 2.212-5.256 4.028-7.277 1.854-2.062 4.081-3.756 6.68-5.082 1.378-.686 2.732-.91 4.06-.674 1.327.197 2.586.776 3.778 1.737 1.315 1.078 1.244 1.96-.215 2.649-.433.214-.686.443-.758.685-.072.243-.063.542.029.9a7.879 7.879 0 0 1 .098 3.058 29.097 29.097 0 0 1-.685 2.964 66.956 66.956 0 0 1-3.422 9.297 39.103 39.103 0 0 1-5.071 8.452c-1.153 1.478-2.572 2.765-4.258 3.861-1.019.674-2.066 1.089-3.141 1.244-1.075.196-2.038.107-2.89-.265-.851-.332-1.552-.95-2.101-1.852-.549-.903-.788-2.095-.716-3.578Zm10.743-13.14.3-.01c2.089-.99 3.747-2.324 4.974-4.006a31.21 31.21 0 0 0 3.304-5.511c.224-.488.197-.707-.081-.658-.28.01-.519.037-.718.084-1.036.154-2.023.547-2.964 1.178-.94.631-1.774 1.439-2.503 2.423a12.507 12.507 0 0 0-1.76 3.12c-.404 1.134-.588 2.26-.552 3.38Zm30.179-16.48c.891.33 1.566.809 2.027 1.434.499.584.744 1.356.735 2.317-.029.362-.156.766-.381 1.214a5.982 5.982 0 0 1-.739 1.284c-.309.37-.638.702-.989.993-.351.292-.705.484-1.062.576-.277.089-.518.057-.724-.097-.122-.076-.165-.174-.129-.296.075-.162.151-.285.228-.367.194-.207.367-.413.521-.618l.576-.739c.155-.165.29-.33.404-.493.154-.206.147-.426-.021-.66-.167-.235-.371-.348-.611-.34-.2.006-.419.034-.658.081-1.393.246-2.636.767-3.731 1.564a15.445 15.445 0 0 0-2.914 2.737c-.309.33-.401.593-.275.79.127.195.352.368.677.517.649.26 1.218.54 1.709.845.982.688 1.55 1.53 1.702 2.525.151.956-.16 1.886-.931 2.792-1.39 1.567-2.976 2.66-4.757 3.278-1.74.658-3.633.88-5.681.667-1.165-.122-1.981-.595-2.447-1.42-.427-.827-.376-1.709.155-2.647l.224-.487c.113-.204.311-.27.594-.2.201.033.304.13.309.29.044.118.069.278.076.478-.016.76.18 1.234.586 1.421.406.187.948.23 1.625.127a16.74 16.74 0 0 0 2.859-.694c.949-.352 1.892-.883 2.83-1.594a41.68 41.68 0 0 0-1.685-.125 14.386 14.386 0 0 1-1.385-.134c-1.685-.145-2.865-.727-3.538-1.745-.674-1.059-.656-2.36.054-3.904a21.486 21.486 0 0 1 3.082-4.964 16.437 16.437 0 0 1 4.564-3.692c1.141-.598 2.29-.975 3.445-1.133 1.196-.16 2.421-.02 3.676.419Z" fill="url(#b)"/></g><defs><linearGradient id="b" x1="105.782" y1="29.423" x2="110.502" y2="173.111" gradientUnits="userSpaceOnUse"><stop stop-color="#F694FF"/><stop offset="1" stop-color="#BA00CA"/></linearGradient><clipPath id="a"><path fill="#fff" d="M0 0h213v90H0z"/></clipPath></defs></svg>