<svg width="219" height="112" fill="none" xmlns="http://www.w3.org/2000/svg"><path d="M3.125 66.25V3.75h18.75v12.5h-6.25v37.5h6.25v12.5H3.125Zm25-6.25V10h50v12.5h-37.5v6.25h31.25v12.5h-31.25V60h-12.5Zm93.75-12.5v-6.25h-25v6.25h25Zm0-18.75V22.5h-25v6.25h25ZM84.375 60V10h43.75l6.25 6.25v12.5l-6.25 6.25 6.25 6.25v12.5l-6.25 6.25h-43.75Zm62.5 0-6.25-6.25V10h12.5l12.5 12.5 12.5-12.5h12.5v50h-12.5V28.75l-12.5 12.5-12.5-12.5V60h-6.25Zm50 6.25v-12.5h6.25v-37.5h-6.25V3.75h18.75v62.5h-18.75Z" fill="#fff"/><path d="M86.985 56.437c1.292-1.192 2.18-2.398 2.667-3.62.486-1.222.595-2.893.327-5.014-.1-1.062-.524-1.643-1.269-1.742-.678-.103-1.471 0-2.379.307-8.206 3.039-13.969 8.566-17.289 16.581a48.854 48.854 0 0 0-3.62 13.662c-.2 1.409.085 2.662.858 3.76.767 1.032 1.756 1.587 2.967 1.665 2.496.22 4.838-.119 7.027-1.018a58.098 58.098 0 0 0 6.5-3.394c2.834-1.861 4.683-2.812 5.549-2.851.932-.042.947.823.045 2.597a78.244 78.244 0 0 1-7.402 7.634c-2.59 2.317-5.546 4.284-8.871 5.902-2.11 1.028-4.263 1.593-6.461 1.692-2.131.097-4.16-.144-6.089-.724a14.331 14.331 0 0 1-4.997-2.972c-1.47-1.4-2.566-3.084-3.288-5.05-.367-1.05-.564-2.074-.592-3.073-.028-.998.01-2 .116-3.005.106-1.004.247-1.977.426-2.918.238-1.011.447-1.987.625-2.928 1.436-8.13 4.348-15.161 8.735-21.092 4.387-5.931 10.355-10.701 17.905-14.31 2.177-1.031 4.4-1.565 6.67-1.602 2.272-.036 4.54.261 6.807.892 1.788.518 3.124 1.558 4.008 3.117.944 1.49 1.201 3.145.772 4.964-.643 3.096-1.72 5.844-3.231 8.245a27.299 27.299 0 0 1-5.518 6.35c-.248.21-.508.289-.78.235a1.577 1.577 0 0 1-.738-.367 1.28 1.28 0 0 1-.266-.688.9.9 0 0 1 .325-.814c.126-.073.187-.142.18-.208.06-.07.154-.14.281-.213Zm14.532 10.04a38.723 38.723 0 0 1 2.737-1.825 24.609 24.609 0 0 1 3.264-1.547c1.161-.453 2.438-.744 3.83-.874 1.386-.196 2.924-.199 4.614-.009.612.106 1.004.355 1.175.747.171.392.215.856.132 1.393-.089.471-.272 1.013-.548 1.625-.216.543-.439 1.02-.667 1.43-.337.682-.858 1.538-1.562 2.57l-1.762 2.58c.767-.368 1.729-.812 2.883-1.33 1.149-.586 2.192-.867 3.131-.843-1.791 3.68-4.134 6.487-7.027 8.417-1.565 1.138-3.193 1.245-4.886.322-.916-.492-1.509-1.098-1.778-1.82-.275-.787-.39-1.648-.345-2.583a9.96 9.96 0 0 1 .258-1.511c.143-.607.531-1.458 1.163-2.553a354.911 354.911 0 0 0-5.283 3.54c-1.885 1.284-3.218 2.745-4 4.38a90.702 90.702 0 0 1-1.433 2.864 43.67 43.67 0 0 1-1.02 1.946c-.282.546-.622 1.195-1.019 1.946a353.81 353.81 0 0 0-1.343 2.76c-1.731 3.611-3.743 4.969-6.035 4.073-2.498-.953-3.3-3.416-2.406-7.39 1.09-3.315 2.094-6.127 3.012-8.434.979-2.378 1.859-4.384 2.64-6.019a104.82 104.82 0 0 1 2.22-4.1 48.309 48.309 0 0 1 1.724-2.977c.53-.758 1.287-1.592 2.27-2.503.978-.977 1.83-1.516 2.556-1.616.768-.368 1.497-.434 2.189-.199.691.236 1.401.67 2.13 1.303.766 1.032 1.076 2.185.93 3.458-.154 1.206-.735 2.133-1.744 2.778Zm43.865 8.409a355.761 355.761 0 0 1-4.295 5.493 42.154 42.154 0 0 1-4.461 4.802 21.983 21.983 0 0 1-5.373 3.643c-1.982.956-4.269 1.526-6.86 1.71-1.393.13-2.713-.043-3.962-.52-1.177-.413-2.172-1.034-2.986-1.864a9.567 9.567 0 0 1-1.901-3.113c-.386-1.25-.512-2.577-.377-3.982.489-5.422 2.035-9.924 4.638-13.508 2.597-3.65 6.268-6.55 11.014-8.698a10.904 10.904 0 0 1 3.558-.561c1.265-.057 2.45.089 3.553.439a7.786 7.786 0 0 1 2.948 1.466c.935.69 1.65 1.525 2.144 2.502.421.914.618 1.938.592 3.073.041 1.13-.152 2.273-.578 3.425a9.706 9.706 0 0 1-1.624 2.973 6.134 6.134 0 0 1-2.418 2.01 42.514 42.514 0 0 1-5.505 2.249c-1.815.615-3.764.87-5.847.765a6.436 6.436 0 0 0-1.599.072c-.532.024-.831.404-.895 1.14a31.122 31.122 0 0 1-.472 2.421c-.198.743-.028 1.468.507 2.177.463.646 1.017.854 1.664.624a62.782 62.782 0 0 0 1.842-.683 30.225 30.225 0 0 0 6.8-3.407 45.591 45.591 0 0 1 6.672-3.702c.447-.22.891-.474 1.332-.76.441-.287 1.071-.35 1.889-.186Zm-8.611-5.109c.657-.83.869-1.772.635-2.828-.168-1.059-.74-1.8-1.716-2.222-.983-.489-1.821-.517-2.516-.086a8.6 8.6 0 0 0-1.947 1.688c-1.14 1.385-1.967 2.889-2.482 4.512-.162.407-.354.85-.576 1.326-.229.41-.161.774.204 1.09.218.19.688.202 1.408.036.786-.169 1.63-.44 2.531-.814a25.952 25.952 0 0 0 2.693-1.222c.822-.504 1.41-.997 1.766-1.48Zm5.726 9.139c.507-3.822 1.58-7.67 3.219-11.544 1.64-3.874 4.398-7.231 8.275-10.073 1.818-1.282 3.675-1.8 5.572-1.553 1.956.178 3.889.457 5.798.837 1.024.22 1.81.752 2.358 1.593a9.12 9.12 0 0 1 1.254 2.643c.876 2.893.89 5.858.041 8.896a41.48 41.48 0 0 1-1.564 4.67 48.058 48.058 0 0 1-2.163 4.697c-.727 1.5-1.5 2.868-2.319 4.105-.759 1.167-1.477 2.067-2.153 2.697-.536.69-1.312 1.326-2.327 1.905-.955.51-2.019.925-3.193 1.245a12.129 12.129 0 0 1-3.468.457c-1.199.054-2.247-.065-3.144-.358-.897-.292-1.777-.752-2.639-1.38a11.373 11.373 0 0 1-2.115-2.203 9.993 9.993 0 0 1-1.392-3.037c-.24-1.122-.253-2.321-.04-3.597Zm11.282 2.588c-.096.404.035.731.394.982.418.18.784.164 1.098-.05 2.332-1.506 4.206-3.257 5.622-5.254 1.483-2 2.78-4.192 3.891-6.575.397-.751.558-1.525.483-2.322a11.453 11.453 0 0 0-.346-2.583 5.905 5.905 0 0 0-.394-.982c-.098-.33-.32-.552-.665-.67-.207-.057-.738.333-1.595 1.172-.796.77-1.728 1.878-2.795 3.326-1 1.445-2.008 3.157-3.024 5.136-.956 1.91-1.696 3.977-2.221 6.2a5.423 5.423 0 0 0-.448 1.62Z" fill="url(#a)"/><defs><linearGradient id="a" x1="104.657" y1="15.743" x2="109.078" y2="113.268" gradientUnits="userSpaceOnUse"><stop stop-color="#FBB14B"/><stop offset="1" stop-color="#FF5F4F"/></linearGradient></defs></svg>