<svg width="219" height="112" fill="none" xmlns="http://www.w3.org/2000/svg"><path d="M3.125 63.25V.75h18.75v12.5h-6.25v37.5h6.25v12.5H3.125Zm25-6.25V7h50v12.5h-37.5v6.25h31.25v12.5h-31.25V57h-12.5Zm93.75-12.5v-6.25h-25v6.25h25Zm0-18.75V19.5h-25v6.25h25ZM84.375 57V7h43.75l6.25 6.25v12.5l-6.25 6.25 6.25 6.25v12.5l-6.25 6.25h-43.75Zm62.5 0-6.25-6.25V7h12.5l12.5 12.5 12.5-12.5h12.5v50h-12.5V25.75l-12.5 12.5-12.5-12.5V57h-6.25Zm50 6.25v-12.5h6.25v-37.5h-6.25V.75h18.75v62.5h-18.75Z" fill="#fff"/><path d="M9.755 87.923c.195-.594.39-1.16.585-1.7a3.642 3.642 0 0 1 1.156-1.398c1.669-1.175 2.984-2.579 3.945-4.21.96-1.633 1.893-3.318 2.797-5.054a88.444 88.444 0 0 0 3.516-7.559 70.494 70.494 0 0 1 3.759-7.486 57.914 57.914 0 0 1 4.13-5.897 31.794 31.794 0 0 1 5.196-5.132c1.302-1.003 2.666-1.714 4.093-2.134 1.425-.473 2.997-.551 4.715-.234 2.256.46 3.81 1.477 4.662 3.05.85 1.52.8 3.31-.146 5.368a13.047 13.047 0 0 1-1.9 3.104 19.381 19.381 0 0 1-2.558 2.564 181.715 181.715 0 0 1-7.02 5.671 183.038 183.038 0 0 1-7.354 5.202 2.15 2.15 0 0 0-.547.418 5.237 5.237 0 0 0-.302.57 55.189 55.189 0 0 1-3.995 7.574c-.356.545-.503.95-.441 1.215.115.263.495.464 1.14.603.753.19 1.48.406 2.182.65a14.42 14.42 0 0 0 2.18.57c1.343.276 2.54.183 3.593-.278a9.655 9.655 0 0 0 2.97-2.178c.209-.166.415-.387.62-.66a3.62 3.62 0 0 1 .618-.66c.26-.222.495-.364.707-.424.21-.113.424-.093.642.06.274.204.388.44.343.709.007.213-.065.455-.216.727-.151.272-.33.544-.534.818-.206.22-.386.44-.539.658-2.028 3.267-4.334 5.37-6.918 6.308-2.584.938-5.657.798-9.219-.42-.81-.294-1.56-.403-2.252-.328-.637.075-1.24.414-1.807 1.02-.207.22-.414.413-.622.58-.21.114-.419.254-.627.42-1.411.9-2.628 1.207-3.652.92-1.021-.234-1.983-1.11-2.887-2.627l-.013-.4ZM30.723 68.11a27.383 27.383 0 0 1 3.942-4.29 76.686 76.686 0 0 0 4.188-4.14 46.495 46.495 0 0 1 1.467-1.648 22.731 22.731 0 0 0 1.465-1.728l.459-.655c.153-.219.119-.431-.101-.637-.169-.262-.385-.335-.648-.22-.211.06-.422.148-.632.261a7.355 7.355 0 0 0-2.202 1.192c-.57.5-1.14 1.051-1.707 1.657a34.11 34.11 0 0 0-3.525 4.837 61.608 61.608 0 0 0-2.707 5.37Zm30.386 14.14a127.887 127.887 0 0 0-2.062 3.028 8.424 8.424 0 0 1-2.164 2.392 7.595 7.595 0 0 1-2.2 1.272c-.739.237-1.403.312-1.993.225a2.093 2.093 0 0 1-1.463-.673c-.335-.47-.437-1.133-.305-1.991a2.191 2.191 0 0 1 .065-.483 5.59 5.59 0 0 1 .216-.727c.098-.27.168-.592.209-.967a26.46 26.46 0 0 1-2.334 2.077 46.819 46.819 0 0 1-2.347 1.677 10.97 10.97 0 0 1-2.522 1.202c-.793.24-1.614.4-2.466.48-.796.133-1.543.131-2.24-.006-.7-.138-1.295-.412-1.789-.823-.495-.464-.782-1.095-.862-1.893-.273-1.858-.197-3.622.229-5.29a44.455 44.455 0 0 1 1.755-5.1c1.287-3.083 3.017-5.674 5.19-7.772 2.224-2.154 5.003-3.658 8.337-4.514 1.694-.428 3.293-.48 4.798-.156 1.558.323 2.972 1.13 4.24 2.424l.826.773c.276.258.367.602.274 1.032-.146.431-.43.707-.853.828-.423.12-.847.214-1.272.281-.743.131-1.459.261-2.148.39a25.16 25.16 0 0 1-2.077.148c-3.674.226-6.464 1.411-8.369 3.554-1.906 2.09-3.23 4.854-3.972 8.294l.018.56c.06.21.146.395.258.551.112.157.276.285.493.384.268.045.585-.045.952-.27.366-.226.627-.395.784-.507a5.2 5.2 0 0 0 .549-.337c.155-.166.31-.304.467-.416.208-.167.44-.388.698-.663a41.53 41.53 0 0 0 1.318-1.323l.928-.991c.308-.384.666-.876 1.073-1.476.407-.6 1.02-1.474 1.836-2.62.254-.383.614-.821 1.078-1.317.464-.495.905-.883 1.322-1.163a16.65 16.65 0 0 1 1.726-1.097c.522-.337 1.083-.329 1.681.025.599.354.934.824 1.007 1.408.124.53.116 1.117-.023 1.762a10.809 10.809 0 0 1-.81 2.188 76.44 76.44 0 0 1-.968 2.192l-1.047 2.275a41.95 41.95 0 0 1-.967 2.273c-.1.217-.172.46-.216.728.007.213.145.368.415.466.11.103.271.125.483.065a1.78 1.78 0 0 0 .551-.258 14.51 14.51 0 0 0 1.024-.514c.42-.227.839-.48 1.256-.761a9.71 9.71 0 0 0 1.413-.847Zm20.225 1.503c.174.42.549.462 1.125.123a29.268 29.268 0 0 0 1.797-1.339 35.561 35.561 0 0 1 1.792-1.499c.573-.445.942-.59 1.107-.436.328.256.444.546.348.869a2.49 2.49 0 0 1-.291.89c-.748 1.625-1.745 2.965-2.991 4.02-1.248 1-2.718 1.742-4.41 2.224a3.1 3.1 0 0 1-2.082-.013c-.646-.192-1.271-.545-1.875-1.06a7.84 7.84 0 0 1-1.42-1.794 5.832 5.832 0 0 1-.554-2.303 18.643 18.643 0 0 1 .079-2.484 9.209 9.209 0 0 1 .724-2.345c.296-.757.67-1.543 1.124-2.358.505-.87.877-1.736 1.116-2.597a40.987 40.987 0 0 1-2.192 1.512 26.35 26.35 0 0 0-2.192 1.512 12.478 12.478 0 0 0-2.024 1.747 9.08 9.08 0 0 0-1.529 2.21c-.397.92-.766 1.866-1.108 2.838-.344.918-.74 1.838-1.191 2.76-.397.92-.961 1.632-1.692 2.136-.679.45-1.557.504-2.636.166-1.078-.338-1.79-.902-2.136-1.691-.347-.843-.484-1.772-.41-2.788.039-.429.105-.858.198-1.288l.438-1.295a163.184 163.184 0 0 1 3.217-6.908 200.345 200.345 0 0 1 3.54-6.838c.402-.76.885-1.497 1.448-2.209a8.948 8.948 0 0 1 1.942-1.824 7.357 7.357 0 0 1 1.893-.862c.635-.18 1.306-.042 2.015.415.655.459.914 1.037.776 1.736-.084.696-.167 1.419-.25 2.169a3.63 3.63 0 0 1-.226.407 5.236 5.236 0 0 0-.302.57 8.439 8.439 0 0 0-.456.736c1.529-.584 2.952-1.11 4.271-1.58a10.079 10.079 0 0 1 4.145-.535c.428.04.829.053 1.202.041.426-.014.854.025 1.284.118 1.128.23 1.78.556 1.953.977.225.367.088 1.065-.412 2.095a851568224959334.4 851568224959334.4 0 0 0-4.864 10.404c-.2.433-.37.919-.513 1.457-.143.538-.069 1.176.222 1.914Zm41.207-39.921c.314-.17.578-.259.791-.266l.64-.02c.318-.064.638-.075.959-.032.322.043.59.088.805.134.215.046.299.15.251.312a61.888 61.888 0 0 1-1.557 3.813 285.143 285.143 0 0 1-1.936 4.465 189.102 189.102 0 0 1-2.168 4.713 277.268 277.268 0 0 1-1.946 4.145 290.89 290.89 0 0 0-4.841 11.124 505.068 505.068 0 0 1-4.599 11.195 17.512 17.512 0 0 1-.979 1.873c-.251.488-.633 1.061-1.145 1.718a4.306 4.306 0 0 1-1.011.913c-.363.332-.759.452-1.189.36-.43-.094-.731-.324-.903-.692a6.06 6.06 0 0 1-.434-1.026c-.113-.21-.203-.5-.268-.872a8.166 8.166 0 0 1-.122-1.277c-.017-.533.014-1.227.093-2.084-.466.442-1.009.967-1.63 1.574-.569.552-1.298 1.11-2.187 1.672-.889.563-1.94 1.077-3.151 1.543-1.214.413-2.646.673-4.297.78-1.544.104-2.807-.175-3.79-.837-.983-.715-1.5-1.846-1.55-3.391-.11-3.359.46-6.365 1.707-9.02 1.301-2.658 2.748-4.92 4.342-6.785a17.841 17.841 0 0 1 3.5-3.156 21.497 21.497 0 0 1 4.164-2.376c2.734-1.263 5.068-.859 7.003 1.213.499.57.881.825 1.146.763.263-.115.571-.472.925-1.07 1.31-2.391 2.62-4.755 3.932-7.092a137.87 137.87 0 0 1 4.336-6.945 24.602 24.602 0 0 1 2.308-2.877 15.657 15.657 0 0 1 2.801-2.492Zm-16.045 25.975c.3-.65.263-.942-.108-.877-.373.013-.692.05-.957.112-1.327.203-2.618.725-3.871 1.566-1.2.84-2.287 1.889-3.26 3.148a16.694 16.694 0 0 0-2.346 4.158c-.592 1.46-.891 2.938-.896 4.432a.86.86 0 0 0 .176.474.67.67 0 0 0 .562.062c1.365-.685 2.566-1.498 3.602-2.438a17.719 17.719 0 0 0 2.86-3.135 25.61 25.61 0 0 0 2.284-3.596 67.553 67.553 0 0 0 1.954-3.906Zm26.098-20.619c.689-.13 1.226-.04 1.609.268.435.252.612.754.529 1.503a12.658 12.658 0 0 1-1.136 4.44c-.649 1.355-1.571 2.559-2.764 3.611-.882.776-1.783.966-2.703.569-.867-.399-1.371-1.156-1.515-2.272-.074-.638.062-1.39.407-2.255a13.98 13.98 0 0 1 1.519-2.53 11.465 11.465 0 0 1 2.009-2.227c.727-.61 1.409-.98 2.045-1.107Zm-9.582 30.247a2.46 2.46 0 0 0-.144.485 2.645 2.645 0 0 0-.06.643c.061.211.147.395.259.552.163.101.405.147.724.136.159-.058.29-.116.395-.173a4.41 4.41 0 0 0 .552-.258c.263-.115.5-.203.712-.263.209-.114.393-.226.549-.338.683-.343 1.18-.626 1.493-.85.311-.276.756-.557 1.333-.843a38.505 38.505 0 0 1-2.348 4.079c-.813 1.253-1.872 2.328-3.177 3.225-.21.113-.393.226-.549.338-.157.111-.34.224-.55.338-.313.223-.785.452-1.418.686a10.34 10.34 0 0 1-1.823.54c-.743.13-1.277.121-1.602-.028-.272-.152-.435-.253-.49-.305-.544-.302-.957-.689-1.239-1.16a8.763 8.763 0 0 1-.534-1.663 5.806 5.806 0 0 1-.063-1.92c.088-.59.277-1.342.567-2.259.342-.972.639-1.702.89-2.19.546-1.245 1.068-2.41 1.567-3.493.498-1.083.997-2.14 1.498-3.17l1.495-3.25a220.115 220.115 0 0 1 1.647-3.496c.301-.597.63-1.141.987-1.633.411-.493.772-.879 1.083-1.156.52-.444 1.151-.704 1.896-.782.745-.077 1.416.06 2.015.415.546.41.855.88.926 1.41.122.477.139 1.01.052 1.6a7.312 7.312 0 0 1-.497 1.937c-.196.54-.445 1.108-.745 1.705l-5.252 10.817-.149.325Zm25.943 2.118c.173.421.548.463 1.124.124a29.68 29.68 0 0 0 1.798-1.34 35.16 35.16 0 0 1 1.792-1.498c.572-.446.941-.591 1.106-.437.329.256.445.546.349.87-.043.321-.14.618-.292.89-.747 1.625-1.744 2.964-2.991 4.019-1.248 1-2.718 1.742-4.41 2.224a3.1 3.1 0 0 1-2.081-.012c-.647-.192-1.272-.546-1.875-1.06a7.835 7.835 0 0 1-1.42-1.794 5.834 5.834 0 0 1-.555-2.304 18.8 18.8 0 0 1 .08-2.483 9.162 9.162 0 0 1 .724-2.345c.295-.757.67-1.543 1.124-2.358.505-.87.877-1.736 1.116-2.598a41.23 41.23 0 0 1-2.192 1.512c-.733.451-1.463.955-2.192 1.512a12.48 12.48 0 0 0-2.025 1.747 9.09 9.09 0 0 0-1.528 2.211c-.397.92-.767 1.866-1.109 2.838a30.81 30.81 0 0 1-1.191 2.76c-.397.92-.96 1.632-1.691 2.136-.679.449-1.558.504-2.636.166-1.078-.339-1.79-.903-2.136-1.692-.348-.842-.485-1.772-.411-2.788.039-.428.105-.857.198-1.287l.438-1.295a164.563 164.563 0 0 1 3.217-6.908 201.801 201.801 0 0 1 3.54-6.839 14.4 14.4 0 0 1 1.449-2.208 8.95 8.95 0 0 1 1.942-1.824 7.338 7.338 0 0 1 1.893-.862c.634-.181 1.306-.043 2.014.414.655.46.914 1.038.777 1.736-.084.697-.167 1.42-.25 2.17a3.8 3.8 0 0 1-.226.407 5.183 5.183 0 0 0-.302.57 8.367 8.367 0 0 0-.456.735c1.528-.583 2.952-1.11 4.27-1.58a10.08 10.08 0 0 1 4.145-.534 9.7 9.7 0 0 0 1.202.04c.427-.013.855.026 1.285.119 1.128.23 1.779.556 1.953.977.225.366.088 1.064-.413 2.094-.85 1.736-1.674 3.47-2.472 5.204l-2.392 5.2c-.199.433-.37.92-.513 1.457-.142.539-.068 1.177.223 1.914Zm-.19 16.895c1.417.915 2.737 1.299 3.959 1.152 1.223-.146 2.432-.72 3.626-1.719.779-.665 1.656-1.6 2.631-2.806a37.814 37.814 0 0 0 2.996-3.86 40.735 40.735 0 0 0 2.746-4.171c.862-1.362 1.517-2.558 1.964-3.586a83.159 83.159 0 0 0-2.992 1.538c-.943.51-1.888.995-2.834 1.453-1.365.684-2.615.805-3.75.362-1.08-.392-1.883-1.3-2.41-2.723-.466-1.212-.665-2.406-.597-3.583a15.42 15.42 0 0 1 .766-3.546c1.157-3.773 2.947-7.007 5.367-9.7 2.472-2.749 5.44-5.006 8.905-6.773 1.838-.914 3.642-1.212 5.413-.897 1.77.263 3.449 1.035 5.038 2.318 1.755 1.437 1.659 2.614-.285 3.531-.578.286-.915.59-1.011.913-.096.324-.083.724.039 1.2a10.5 10.5 0 0 1 .133 4.078 38.954 38.954 0 0 1-.912 3.951 89.232 89.232 0 0 1-4.56 12.395 52.085 52.085 0 0 1-6.757 11.266c-1.537 1.971-3.429 3.686-5.676 5.147-1.358.898-2.754 1.45-4.188 1.657-1.432.26-2.717.142-3.854-.355-1.135-.443-2.069-1.267-2.801-2.47-.733-1.204-1.052-2.794-.956-4.772Zm14.318-17.514.4-.013c2.785-1.318 4.995-3.098 6.63-5.339a41.529 41.529 0 0 0 4.403-7.347c.299-.65.263-.942-.108-.877-.373.013-.692.05-.957.112-1.381.204-2.698.728-3.951 1.569-1.254.841-2.366 1.918-3.337 3.23a16.687 16.687 0 0 0-2.346 4.158c-.538 1.512-.782 3.014-.734 4.507Zm40.232-21.96c1.188.442 2.089 1.08 2.703 1.913.666.78.993 1.809.981 3.09-.037.482-.206 1.02-.507 1.617a7.986 7.986 0 0 1-.985 1.713c-.411.494-.85.935-1.318 1.324-.467.389-.939.644-1.416.766-.369.12-.691.076-.964-.128-.164-.102-.221-.233-.173-.395a1.84 1.84 0 0 1 .304-.49 9.85 9.85 0 0 0 .694-.823l.768-.986c.206-.22.386-.44.539-.657.204-.274.195-.567-.029-.88-.223-.313-.495-.464-.815-.454a5.397 5.397 0 0 0-.877.109c-1.857.327-3.515 1.021-4.975 2.083a20.599 20.599 0 0 0-3.883 3.648c-.413.44-.535.79-.366 1.052.168.262.469.492.903.691.865.346 1.624.721 2.278 1.127 1.31.918 2.067 2.04 2.27 3.368.202 1.274-.211 2.515-1.239 3.722-1.853 2.088-3.967 3.544-6.342 4.368-2.319.876-4.844 1.172-7.575.887-1.553-.163-2.64-.794-3.263-1.895-.57-1.102-.501-2.278.205-3.528l.299-.65c.151-.272.415-.36.792-.266.268.044.406.173.413.387.058.158.092.37.101.637-.021 1.014.24 1.646.782 1.895.541.25 1.264.306 2.166.17a22.275 22.275 0 0 0 3.812-.924c1.266-.469 2.523-1.176 3.773-2.124a55.642 55.642 0 0 0-2.246-.167 19.205 19.205 0 0 1-1.847-.18c-2.248-.194-3.82-.97-4.718-2.328-.9-1.412-.877-3.147.07-5.205a28.627 28.627 0 0 1 4.107-6.617c1.697-1.977 3.725-3.617 6.084-4.92 1.521-.797 3.052-1.3 4.593-1.51 1.594-.213 3.228-.026 4.901.56Z" fill="url(#a)"/><defs><linearGradient id="a" x1="106.818" y1="27.215" x2="113.205" y2="223.612" gradientUnits="userSpaceOnUse"><stop stop-color="#F694FF"/><stop offset="1" stop-color="#BA00CA"/></linearGradient></defs></svg>