<svg width="85" height="38" fill="none" xmlns="http://www.w3.org/2000/svg"><g clip-path="url(#a)"><path d="M.25 25.5V.5h7.5v5h-2.5v15h2.5v5H.25Zm10-2.5V3h20v5h-15v2.5h12.5v5h-12.5V23h-5Zm37.5-5v-2.5h-10V18h10Zm0-7.5V8h-10v2.5h10Zm-15 12.5V3h17.5l2.5 2.5v5l-2.5 2.5 2.5 2.5v5l-2.5 2.5h-17.5Zm25 0-2.5-2.5V3h5l5 5 5-5h5v20h-5V10.5l-5 5-5-5V23h-2.5Zm20 2.5v-5h2.5v-15h-2.5v-5h7.5v25h-7.5Z" fill="#fff"/><path d="M9.915 30.249c.06-.185.121-.362.183-.531a1.14 1.14 0 0 1 .36-.437 4.231 4.231 0 0 0 1.234-1.317c.3-.51.592-1.036.875-1.58.408-.78.775-1.567 1.1-2.361.34-.796.732-1.575 1.175-2.34.396-.647.826-1.261 1.29-1.844a9.944 9.944 0 0 1 1.625-1.604 3.892 3.892 0 0 1 1.28-.667c.445-.148.936-.173 1.473-.074.705.144 1.19.461 1.456.953.265.475.25 1.034-.046 1.677a4.078 4.078 0 0 1-.594.97c-.24.292-.507.559-.8.802a56.846 56.846 0 0 1-2.194 1.773 57.05 57.05 0 0 1-2.299 1.626.67.67 0 0 0-.17.131c-.032.051-.064.11-.095.178a17.252 17.252 0 0 1-1.25 2.368c-.11.17-.156.297-.137.38.036.081.155.144.356.188.236.059.463.126.682.203.22.076.446.135.681.177.42.086.794.057 1.123-.087a3.02 3.02 0 0 0 .928-.68 1.15 1.15 0 0 0 .194-.207c.064-.086.128-.154.193-.207a.618.618 0 0 1 .221-.132c.066-.035.133-.03.2.019.086.063.122.137.108.221a.448.448 0 0 1-.068.227c-.047.085-.102.17-.166.256a1.88 1.88 0 0 0-.169.206c-.634 1.021-1.355 1.678-2.163 1.972-.807.293-1.767.25-2.88-.13a1.561 1.561 0 0 0-.704-.103c-.2.024-.388.13-.565.32-.064.068-.13.129-.194.18-.066.036-.131.08-.196.132-.441.281-.822.377-1.141.288-.32-.073-.62-.347-.902-.821l-.004-.125Zm6.554-6.194a8.562 8.562 0 0 1 1.232-1.34c.454-.416.89-.847 1.31-1.294.16-.19.313-.36.458-.516a7.11 7.11 0 0 0 .458-.54l.143-.205c.048-.068.038-.134-.031-.199-.053-.082-.12-.104-.203-.068a.982.982 0 0 0-.197.081 2.297 2.297 0 0 0-.688.373 7.452 7.452 0 0 0-.534.518c-.418.48-.785.984-1.102 1.512-.3.527-.582 1.086-.846 1.678Zm9.494 4.416c-.24.341-.454.657-.645.947a2.64 2.64 0 0 1-.676.747c-.211.174-.44.307-.688.398a1.38 1.38 0 0 1-.623.07.654.654 0 0 1-.457-.21c-.104-.146-.136-.353-.095-.622a.684.684 0 0 1 .02-.15 1.76 1.76 0 0 1 .068-.228c.03-.084.052-.185.065-.302a8.295 8.295 0 0 1-.73.65 14.62 14.62 0 0 1-.733.524 3.428 3.428 0 0 1-.788.376 3.954 3.954 0 0 1-.77.15 1.95 1.95 0 0 1-.7-.002 1.226 1.226 0 0 1-.56-.257.904.904 0 0 1-.269-.591 4.168 4.168 0 0 1 .072-1.653c.15-.539.333-1.07.55-1.594.402-.964.943-1.774 1.622-2.43.695-.673 1.564-1.143 2.606-1.411a3.254 3.254 0 0 1 1.499-.05c.487.101.928.354 1.325.757l.258.242c.086.08.114.188.085.322a.379.379 0 0 1-.267.26 3.387 3.387 0 0 1-.397.087c-.232.041-.456.082-.671.123-.2.023-.416.038-.65.046-1.147.071-2.02.441-2.615 1.111-.596.654-1.01 1.518-1.242 2.593l.006.175a.557.557 0 0 0 .08.172.377.377 0 0 0 .154.12c.084.014.183-.014.298-.085.114-.07.196-.123.245-.158a1.64 1.64 0 0 0 .171-.106 1 1 0 0 1 .146-.13c.065-.052.138-.12.219-.207.178-.172.315-.31.412-.414l.29-.31c.096-.12.208-.273.335-.46.128-.188.319-.461.574-.82.08-.12.192-.256.337-.411.145-.155.283-.276.413-.364.196-.14.376-.254.54-.343.163-.105.338-.103.525.008.187.11.292.257.315.44a1.25 1.25 0 0 1-.008.55 3.38 3.38 0 0 1-.253.684c-.093.22-.194.448-.303.685l-.327.712c-.093.236-.193.473-.302.71a.898.898 0 0 0-.068.227c.002.067.045.115.13.146.034.032.084.039.15.02a.558.558 0 0 0 .173-.08 4.861 4.861 0 0 0 .712-.399c.148-.072.295-.16.442-.265Zm6.32.468c.054.131.171.144.351.038.18-.122.367-.262.562-.418.195-.174.381-.33.56-.469.18-.14.295-.185.346-.136.103.08.14.17.109.271a.779.779 0 0 1-.091.278 3.573 3.573 0 0 1-.935 1.257 3.87 3.87 0 0 1-1.379.695.969.969 0 0 1-.65-.003 1.62 1.62 0 0 1-.586-.331 2.447 2.447 0 0 1-.443-.561 1.82 1.82 0 0 1-.173-.72c-.009-.266 0-.525.025-.776.041-.252.117-.496.226-.733.093-.236.21-.482.352-.737.158-.272.274-.542.349-.812-.212.157-.44.315-.685.473a8.26 8.26 0 0 0-.686.473c-.228.157-.439.34-.632.546a2.838 2.838 0 0 0-.478.691c-.125.288-.24.583-.347.887a9.771 9.771 0 0 1-.372.863c-.125.287-.3.51-.53.667-.211.14-.486.158-.823.052-.337-.105-.56-.281-.667-.528a1.896 1.896 0 0 1-.128-.871c.012-.134.033-.268.062-.402l.137-.405c.31-.71.646-1.43 1.006-2.16.36-.728.729-1.44 1.106-2.137.126-.238.277-.468.454-.69.176-.223.378-.413.606-.57.197-.124.394-.213.592-.27.198-.056.408-.013.63.13.204.143.285.324.242.542a75.44 75.44 0 0 0-.078.678c-.016.034-.04.076-.071.127-.032.051-.063.11-.094.178a2.615 2.615 0 0 0-.143.23c.478-.182.923-.347 1.335-.494.429-.148.86-.203 1.295-.168.134.013.26.017.376.013.133-.004.267.008.401.037.352.072.556.173.61.305.07.114.028.333-.129.655a73.356 73.356 0 0 0-.773 1.626l-.748 1.625a2.822 2.822 0 0 0-.16.456c-.045.168-.022.367.069.598Zm12.88-12.48a.589.589 0 0 1 .248-.083l.2-.007c.1-.02.2-.023.3-.01.1.014.184.028.251.042.068.015.094.047.078.098a19.24 19.24 0 0 1-.486 1.192c-.186.44-.388.904-.606 1.395-.217.49-.443.982-.678 1.473a83.27 83.27 0 0 1-.608 1.296 91.6 91.6 0 0 0-1.514 3.476 157.222 157.222 0 0 1-1.438 3.5c-.11.237-.211.432-.307.585a3.559 3.559 0 0 1-.358.537 1.35 1.35 0 0 1-.316.285.402.402 0 0 1-.371.113.38.38 0 0 1-.282-.216 1.88 1.88 0 0 1-.136-.32.922.922 0 0 1-.083-.273c-.02-.1-.033-.233-.038-.4a5.467 5.467 0 0 1 .029-.65c-.146.138-.316.302-.51.491a4.24 4.24 0 0 1-.683.523 5.613 5.613 0 0 1-.985.483c-.38.129-.827.21-1.343.244-.483.033-.877-.055-1.184-.261-.307-.224-.469-.577-.484-1.06-.034-1.05.144-1.989.534-2.819.407-.83.86-1.537 1.358-2.12a5.58 5.58 0 0 1 1.093-.987 6.723 6.723 0 0 1 1.302-.743c.855-.395 1.584-.27 2.188.378.156.178.276.258.358.239.083-.037.18-.148.29-.335.41-.747.819-1.486 1.23-2.217.426-.73.878-1.454 1.355-2.17a7.66 7.66 0 0 1 .721-.9c.258-.292.55-.551.876-.779Zm-5.016 8.12c.094-.204.083-.295-.033-.275a1.55 1.55 0 0 0-.3.035 2.97 2.97 0 0 0-1.21.49 4.68 4.68 0 0 0-1.018.984 5.22 5.22 0 0 0-.734 1.3 3.687 3.687 0 0 0-.28 1.385c.001.05.02.1.054.148a.21.21 0 0 0 .176.02 4.999 4.999 0 0 0 1.126-.763c.341-.295.639-.621.894-.98.272-.359.51-.734.714-1.124.22-.407.424-.814.611-1.22Zm8.158-6.447c.215-.04.383-.013.503.083.136.08.19.236.165.47a3.963 3.963 0 0 1-.356 1.388 3.54 3.54 0 0 1-.864 1.129c-.275.242-.557.301-.845.178-.27-.125-.428-.361-.473-.71-.023-.2.02-.435.128-.705.124-.27.283-.534.475-.79.19-.274.4-.506.628-.697.227-.19.44-.306.639-.346Zm-2.998 9.453a.782.782 0 0 0-.045.152.82.82 0 0 0-.018.2.555.555 0 0 0 .08.173.409.409 0 0 0 .227.043.963.963 0 0 0 .123-.054c.05-.019.107-.046.173-.081a1.64 1.64 0 0 1 .222-.082 1.64 1.64 0 0 0 .172-.106c.213-.107.369-.196.467-.265.097-.087.236-.175.416-.264-.219.44-.464.865-.734 1.275a3.587 3.587 0 0 1-.993 1.008 1.64 1.64 0 0 0-.172.105c-.049.035-.106.07-.172.106a1.96 1.96 0 0 1-.443.215 3.232 3.232 0 0 1-.57.168c-.232.041-.399.039-.5-.008a1.06 1.06 0 0 1-.153-.095 1.01 1.01 0 0 1-.387-.363 2.716 2.716 0 0 1-.167-.52 1.81 1.81 0 0 1-.02-.6 4.85 4.85 0 0 1 .178-.705c.107-.304.2-.532.278-.685a61.98 61.98 0 0 1 .958-2.082l.468-1.016c.156-.339.328-.703.515-1.093a3.71 3.71 0 0 1 .309-.51c.128-.155.241-.275.338-.361.163-.14.36-.22.593-.245a1 1 0 0 1 .63.13c.17.127.267.274.289.44.038.149.043.316.016.5a2.23 2.23 0 0 1-.156.605 4.909 4.909 0 0 1-.233.533l-1.642 3.38-.047.102Zm8.107.66c.054.131.172.144.352.038.179-.123.366-.262.561-.419.195-.173.382-.329.56-.468.18-.14.295-.185.346-.137.103.08.14.171.11.272a.777.777 0 0 1-.092.278 3.572 3.572 0 0 1-.935 1.256c-.39.313-.85.545-1.378.696a.969.969 0 0 1-.65-.003 1.62 1.62 0 0 1-.587-.331 2.447 2.447 0 0 1-.443-.561 1.822 1.822 0 0 1-.173-.72c-.009-.266 0-.525.025-.776.042-.252.117-.496.226-.733.093-.236.21-.482.352-.737.158-.272.274-.542.349-.812-.212.157-.44.315-.685.473-.23.14-.458.299-.685.473a3.9 3.9 0 0 0-.633.546 2.838 2.838 0 0 0-.478.69c-.124.288-.24.584-.347.888a9.77 9.77 0 0 1-.372.862c-.124.288-.3.51-.53.668-.211.14-.486.158-.823.052-.337-.105-.56-.282-.667-.528a1.896 1.896 0 0 1-.128-.871c.012-.134.033-.268.062-.403l.137-.404c.31-.711.646-1.43 1.006-2.16.36-.729.729-1.441 1.107-2.137.125-.238.276-.468.453-.69.176-.223.378-.413.607-.57.196-.124.393-.214.591-.27.198-.057.408-.014.63.13.205.143.285.323.242.542l-.078.677a1.4 1.4 0 0 1-.07.128 1.63 1.63 0 0 0-.095.178 2.63 2.63 0 0 0-.143.23 64.46 64.46 0 0 1 1.335-.494c.429-.148.86-.204 1.295-.168.134.012.26.017.376.013.133-.005.267.008.401.037.353.072.556.173.61.305.07.114.028.332-.129.654a73.356 73.356 0 0 0-.773 1.627l-.748 1.625a2.822 2.822 0 0 0-.16.456c-.045.168-.022.367.07.598Zm-.06 5.28c.442.285.854.405 1.236.36.382-.047.76-.226 1.134-.538.243-.209.517-.501.822-.878.322-.36.634-.763.937-1.206a12.7 12.7 0 0 0 .858-1.304c.27-.426.474-.8.614-1.12-.328.16-.64.32-.935.48a21.2 21.2 0 0 1-.886.454c-.426.215-.817.252-1.172.114-.337-.122-.588-.406-.752-.85a2.663 2.663 0 0 1-.187-1.12 4.84 4.84 0 0 1 .24-1.109c.362-1.179.922-2.19 1.678-3.032a9.523 9.523 0 0 1 2.783-2.117c.575-.286 1.139-.38 1.692-.28.553.081 1.078.322 1.575.723.548.449.518.817-.09 1.104-.18.089-.286.184-.316.285a.708.708 0 0 0 .012.375c.097.43.111.855.041 1.274-.07.403-.165.814-.285 1.235a27.87 27.87 0 0 1-1.426 3.874 16.293 16.293 0 0 1-2.113 3.521 7.204 7.204 0 0 1-1.774 1.61 3.19 3.19 0 0 1-1.31.518c-.447.081-.848.044-1.203-.11-.355-.14-.647-.396-.876-.772-.229-.377-.328-.873-.298-1.491Zm4.475-5.475.125-.005c.87-.412 1.562-.968 2.072-1.668.528-.701.987-1.467 1.377-2.297.094-.203.083-.294-.033-.274a1.55 1.55 0 0 0-.3.035 2.988 2.988 0 0 0-1.234.49c-.392.264-.74.6-1.043 1.01a5.219 5.219 0 0 0-.734 1.3 3.803 3.803 0 0 0-.23 1.409Zm12.575-6.867c.37.138.653.337.844.598.208.243.31.565.306.965a1.37 1.37 0 0 1-.158.506 2.49 2.49 0 0 1-.308.535 3.183 3.183 0 0 1-.412.414 1.143 1.143 0 0 1-.443.24.317.317 0 0 1-.301-.04c-.051-.032-.07-.073-.054-.124a.582.582 0 0 1 .095-.153 3.05 3.05 0 0 0 .217-.258l.24-.308c.065-.068.12-.137.169-.205.063-.086.06-.177-.01-.275-.07-.098-.154-.145-.254-.142a3.698 3.698 0 0 0-1.829.685 6.48 6.48 0 0 0-1.214 1.141c-.129.138-.167.247-.114.33a.645.645 0 0 0 .282.215c.27.108.507.225.712.352.409.287.645.637.709 1.052.063.398-.067.786-.388 1.163-.58.653-1.24 1.108-1.982 1.366-.725.274-1.514.367-2.367.278-.486-.05-.825-.248-1.02-.592-.178-.344-.156-.712.065-1.102l.093-.204c.047-.085.13-.112.248-.083.083.014.126.054.128.121a.65.65 0 0 1 .032.2c-.006.316.075.514.244.591.17.078.395.096.677.053a6.97 6.97 0 0 0 1.191-.29 4.605 4.605 0 0 0 1.18-.663 17.455 17.455 0 0 0-.702-.052c-.2-.01-.393-.029-.577-.056-.703-.06-1.194-.303-1.475-.727-.28-.441-.273-.983.023-1.627a8.946 8.946 0 0 1 1.284-2.068 6.85 6.85 0 0 1 1.902-1.538 4.36 4.36 0 0 1 1.435-.473 3.278 3.278 0 0 1 1.532.175Z" fill="url(#b)"/></g><defs><linearGradient id="b" x1="40.244" y1="11.018" x2="41.41" y2="46.512" gradientUnits="userSpaceOnUse"><stop stop-color="#F694FF"/><stop offset="1" stop-color="#BA00CA"/></linearGradient><clipPath id="a"><path fill="#fff" d="M0 0h85v38H0z"/></clipPath></defs></svg>