<svg width="230" height="208" fill="none" xmlns="http://www.w3.org/2000/svg"><path fill="#090C10" d="M0 0h230v208H0z"/><path d="M9.125 139.25v-62.5h18.75v12.5h-6.25v37.5h6.25v12.5H9.125Zm25-6.25V83h50v12.5h-37.5v6.25h31.25v12.5h-31.25V133h-12.5Zm93.75-12.5v-6.25h-25v6.25h25Zm0-18.75V95.5h-25v6.25h25ZM90.375 133V83h43.75l6.25 6.25v12.5l-6.25 6.25 6.25 6.25v12.5l-6.25 6.25h-43.75Zm62.5 0-6.25-6.25V83h12.5l12.5 12.5 12.5-12.5h12.5v50h-12.5v-31.25l-12.5 12.5-12.5-12.5V133h-6.25Zm50 6.25v-12.5h6.25v-37.5h-6.25v-12.5h18.75v62.5h-18.75Z" fill="#fff"/></svg>